HIERARCHY
ROOT Hips
{
	OFFSET 0.000000 0.000000 0.000000
	CHANNELS 6 Xposition Yposition Zposition Zrotation Yrotation Xrotation 
	JOINT LHipJoint
	{
		OFFSET 0.000000 0.000000 0.000000
		CHANNELS 3 Zrotation Yrotation Xrotation
		JOINT LeftUpLeg
		{
			OFFSET 1.363060 -1.794630 0.839290
			CHANNELS 3 Zrotation Yrotation Xrotation
			JOINT LeftLeg
			{
				OFFSET 2.448110 -6.726130 0.000000
				CHANNELS 3 Zrotation Yrotation Xrotation
				JOINT LeftFoot
				{
					OFFSET 2.562200 -7.039590 0.000000
					CHANNELS 3 Zrotation Yrotation Xrotation
					JOINT LeftToeBase
					{
						OFFSET 0.157640 -0.433110 2.322550
						CHANNELS 3 Zrotation Yrotation Xrotation
						End Site
						{
							OFFSET 0.000000 0.000000 0.000000
						}
					}
				}
			}
		}
	}
	JOINT RHipJoint
	{
		OFFSET 0.000000 0.000000 0.000000
		CHANNELS 3 Zrotation Yrotation Xrotation
		JOINT RightUpLeg
		{
			OFFSET -1.305520 -1.794630 0.839290
			CHANNELS 3 Zrotation Yrotation Xrotation
			JOINT RightLeg
			{
				OFFSET -2.542530 -6.985550 0.000000
				CHANNELS 3 Zrotation Yrotation Xrotation
				JOINT RightFoot
				{
					OFFSET -2.568260 -7.056230 0.000000
					CHANNELS 3 Zrotation Yrotation Xrotation
					JOINT RightToeBase
					{
						OFFSET -0.164730 -0.452590 2.363150
						CHANNELS 3 Zrotation Yrotation Xrotation
						End Site
						{
							OFFSET 0.000000 0.000000 0.000000
						}
					}
				}
			}
		}
	}
	JOINT LowerBack
	{
		OFFSET 0.000000 0.000000 0.000000
		CHANNELS 3 Zrotation Yrotation Xrotation
		JOINT Spine
		{
			OFFSET 0.028270 2.035590 -0.193380
			CHANNELS 3 Zrotation Yrotation Xrotation
			JOINT Spine1
			{
				OFFSET 0.056720 2.048850 -0.042750
				CHANNELS 3 Zrotation Yrotation Xrotation
				JOINT Neck
				{
					OFFSET 0.000000 0.000000 0.000000
					CHANNELS 3 Zrotation Yrotation Xrotation
					JOINT Neck1
					{
						OFFSET -0.054170 1.746240 0.172020
						CHANNELS 3 Zrotation Yrotation Xrotation
						JOINT Head
						{
							OFFSET 0.104070 1.761360 -0.123970
							CHANNELS 3 Zrotation Yrotation Xrotation
							End Site
							{
								OFFSET 0.000000 0.000000 0.000000
							}
						}
					}
				}
				JOINT LeftShoulder
				{
					OFFSET 0.000000 0.000000 0.000000
					CHANNELS 3 Zrotation Yrotation Xrotation
					JOINT LeftArm
					{
						OFFSET 3.362410 1.200890 -0.311210
						CHANNELS 3 Zrotation Yrotation Xrotation
						JOINT LeftForeArm
						{
							OFFSET 4.983000 -0.000000 -0.000000
							CHANNELS 3 Zrotation Yrotation Xrotation
							JOINT LeftHand
							{
								OFFSET 3.483560 -0.000000 -0.000000
								CHANNELS 3 Zrotation Yrotation Xrotation
								JOINT LeftFingerBase
								{
									OFFSET 0.000000 0.000000 0.000000
									CHANNELS 3 Zrotation Yrotation Xrotation
									JOINT LeftHandIndex1
									{
										OFFSET 0.715260 -0.000000 -0.000000
										CHANNELS 3 Zrotation Yrotation Xrotation
										End Site
										{
											OFFSET 0.000000 0.000000 0.000000
										}
									}
								}
								JOINT LThumb
								{
									OFFSET 0.000000 0.000000 0.000000
									CHANNELS 3 Zrotation Yrotation Xrotation
									End Site
									{
										OFFSET 0.000000 0.000000 0.000000
									}
								}
							}
						}
					}
				}
				JOINT RightShoulder
				{
					OFFSET 0.000000 0.000000 0.000000
					CHANNELS 3 Zrotation Yrotation Xrotation
					JOINT RightArm
					{
						OFFSET -3.136600 1.374050 -0.404650
						CHANNELS 3 Zrotation Yrotation Xrotation
						JOINT RightForeArm
						{
							OFFSET -5.241900 -0.000000 -0.000000
							CHANNELS 3 Zrotation Yrotation Xrotation
							JOINT RightHand
							{
								OFFSET -3.444170 -0.000000 -0.000000
								CHANNELS 3 Zrotation Yrotation Xrotation
								JOINT RightFingerBase
								{
									OFFSET 0.000000 0.000000 0.000000
									CHANNELS 3 Zrotation Yrotation Xrotation
									JOINT RightHandIndex1
									{
										OFFSET -0.622530 -0.000000 -0.000000
										CHANNELS 3 Zrotation Yrotation Xrotation
										End Site
										{
											OFFSET 0.000000 0.000000 0.000000
										}
									}
								}
								JOINT RThumb
								{
									OFFSET 0.000000 0.000000 0.000000
									CHANNELS 3 Zrotation Yrotation Xrotation
									End Site
									{
										OFFSET 0.000000 0.000000 0.000000
									}
								}
							}
						}
					}
				}
			}
		}
	}
}
MOTION
Frames: 5
Frame Time: 0.008333
8.474662 18.259256 -14.710961 -178.748415 -14.250479 -166.602381 -4.523587 -5.729250 -1.923073 -15.529006 11.233419 -26.579750 -1.300433 4.883804 12.672931 5.693085 -10.840335 41.326032 3.305700 11.174200 32.869800 1.100003 3.611924 -3.499739 18.746575 -4.702439 -33.778211 -8.353468 -17.976426 55.714766 -0.263617 -13.210244 17.010714 -0.072000 -1.731400 4.763900 5.647902 6.088978 9.989827 -1.318965 7.896565 -3.114160 -9.207296 4.326753 1.910545 3.283142 20.381770 -0.830198 -6.475223 28.078472 0.473628 -3.688300 14.061600 -0.397500 -0.998086 -7.885576 2.945105 -73.190815 -5.956394 60.894168 56.577890 -51.955829 -30.588676 0.782341 -0.201742 -13.730015 26.627101 -18.322857 -8.544700 -7.125000 0.000000 0.000000 -1.392000 10.109300 1.126400 0.078871 9.521513 3.434404 73.330152 -8.270875 37.044348 -27.208311 32.196856 -9.361730 0.801672 1.821863 -3.589703 0.136322 -26.610869 0.363000 7.125000 0.000000 0.000000 31.675400 -55.391900 -8.715800 
8.469335 18.273527 -14.629857 -179.207719 -14.898377 -166.839674 -4.530729 -5.691520 -1.802904 -15.804840 11.422377 -25.776545 -1.284575 4.992561 12.934361 5.757998 -11.471482 41.721180 3.467600 11.416000 33.696100 1.115886 3.626409 -3.551463 18.194181 -5.397386 -33.829442 -8.465305 -18.031370 56.067112 -0.236145 -13.184109 16.806099 -0.089200 -1.926000 5.301100 5.419582 5.940876 9.882221 -1.373965 7.665306 -3.023859 -9.259919 4.203853 2.121776 3.330294 20.408147 -0.662380 -6.456369 28.106879 0.414740 -3.718500 14.074000 -0.447400 -1.006736 -7.893080 2.949861 -73.589852 -6.387393 60.790340 55.486464 -51.599666 -29.671581 0.779985 -0.185402 -13.596382 26.719480 -18.373897 -8.611000 -7.125000 0.000000 0.000000 -1.340500 10.016200 1.087200 0.066134 9.497831 3.436442 73.670229 -8.945478 36.796208 -27.151143 32.157224 -9.326108 0.841710 1.785914 -3.148332 -0.417165 -26.553531 0.636000 7.125000 0.000000 0.000000 31.057400 -55.425200 -8.546100 
8.462099 18.277748 -14.534079 -179.504661 -15.363359 -166.946757 -4.541286 -5.655118 -1.717089 -15.907619 11.378722 -25.024660 -1.280154 5.023828 12.982131 5.782029 -11.826184 41.862738 3.535400 11.515000 34.037100 1.133717 3.625369 -3.580710 17.764231 -5.751490 -34.055570 -8.532487 -18.059435 56.273977 -0.257138 -13.043742 16.872169 -0.075400 -1.771300 4.874100 5.391186 5.888344 9.764476 -1.454698 7.571803 -2.968048 -9.460288 4.153911 2.300493 3.394767 20.445071 -0.502954 -6.284958 28.133309 0.406622 -3.698800 14.082900 -0.503800 -1.017505 -7.912302 2.955175 -73.971456 -6.968049 60.851007 54.234883 -51.163123 -28.624576 0.776711 -0.167039 -13.525138 26.777576 -18.433952 -8.669900 -7.125000 0.000000 0.000000 -1.311900 9.917200 1.066600 0.042965 9.473436 3.429492 74.150138 -9.642520 36.267878 -27.143960 32.166224 -9.328621 0.881770 1.755702 -2.737003 -0.932741 -26.631997 0.894500 7.125000 0.000000 0.000000 30.579600 -55.572500 -8.509100 
8.522701 18.243477 -14.346845 -179.058681 -14.519114 -166.629419 -4.539515 -5.524201 -1.809765 -14.344787 8.893065 -24.009878 -1.253796 5.109362 13.141184 5.252674 -11.540443 38.438961 2.966500 10.640600 31.077100 1.142039 3.535167 -3.489664 18.127668 -2.849736 -35.045578 -8.621482 -18.173506 56.630899 -0.084745 -14.340161 16.502301 -0.056200 -1.529200 4.206300 5.280449 6.277793 10.410128 -1.561829 8.136341 -3.201288 -9.651577 4.398038 1.467485 3.418810 20.469333 -0.414198 -6.133336 28.127888 0.365845 -3.653500 14.076900 -0.541200 -1.018896 -7.958945 2.930058 -74.190844 -7.479507 61.033086 53.371968 -50.813132 -27.888995 0.773789 -0.148626 -13.632333 26.732749 -18.374001 -8.634100 -7.125000 0.000000 0.000000 -1.337600 9.969000 1.086200 -0.003689 9.515415 3.396552 74.673583 -10.326193 35.629295 -27.148955 32.153686 -9.331354 0.915820 1.732049 -2.538736 -1.343323 -26.697434 1.103900 7.125000 0.000000 0.000000 30.192800 -55.692800 -8.477700 
8.458380 18.261065 -14.319810 -179.782288 -16.150409 -167.106563 -4.580729 -5.500405 -1.663497 -15.030611 8.874491 -22.566182 -1.250733 5.224075 13.375961 5.396845 -12.232017 39.490283 3.379300 11.285100 33.247700 1.158939 3.573194 -3.584643 17.229223 -5.721467 -34.659318 -8.668813 -18.142660 56.726102 -0.274030 -12.820799 16.854744 -0.032600 -1.165500 3.204400 5.529334 5.826454 9.628806 -1.573934 7.473318 -2.912338 -9.846465 4.096007 2.520919 3.432650 20.504002 -0.382567 -6.145037 28.198622 0.417103 -3.672600 14.112900 -0.547300 -1.037271 -7.931695 2.960648 -74.430770 -7.672938 61.085849 52.825689 -50.639441 -27.455358 0.773498 -0.147844 -13.731484 26.733501 -18.668095 -8.768500 -7.125000 0.000000 0.000000 -1.366400 9.647700 1.118400 0.008073 9.429208 3.415758 74.901651 -10.978771 35.346969 -27.010639 32.080725 -9.272730 0.939235 1.728089 -2.641852 -1.791798 -26.912398 1.338600 7.125000 0.000000 0.000000 29.894100 -55.962400 -8.584600 
